<svg width="28" height="28" viewBox="0 0 28 28" fill="none" xmlns="http://www.w3.org/2000/svg">
<path d="M27.1624 14.0966L27.1513 14.0635H0.849465L0.838399 14.0966C0.766565 14.3288 0.733398 14.5665 0.733398 14.8098V25.3736C0.733398 26.7611 1.86109 27.8888 3.2486 27.8888H24.7522C26.1397 27.8888 27.2674 26.7611 27.2674 25.3736V14.8098C27.2674 14.5665 27.2342 14.3288 27.1624 14.0966ZM22.9059 22.571C22.9059 23.4499 22.1928 24.163 21.3138 24.163H6.69248C5.81353 24.163 5.0949 23.4499 5.0949 22.571V19.3869C5.0949 18.5024 5.81353 17.7893 6.69248 17.7893H21.3138C22.1928 17.7893 22.9059 18.5024 22.9059 19.3869V22.571Z" fill="white"/>
<path d="M25.4101 8.25357C24.9292 6.88819 23.6412 5.97607 22.1984 5.97607H20.5898C20.5787 7.11482 20.2636 8.21487 19.6943 9.19333H20.8717C21.0984 9.19333 21.2863 9.3813 21.2863 9.60792C21.2863 9.83459 21.0984 10.0225 20.8717 10.0225H7.13483C6.9082 10.0225 6.72023 9.83459 6.72023 9.60792C6.72023 9.3813 6.9082 9.19333 7.13483 9.19333H8.31228C7.74292 8.21487 7.42782 7.11482 7.41676 5.97607H5.80815C4.35983 5.97607 3.07182 6.8882 2.59642 8.25357L0.849579 13.2398H27.157L25.4101 8.25357Z" fill="white"/>
<path d="M14.0004 0.111084C10.8219 0.111084 8.2403 2.69258 8.2403 5.87113C8.2403 7.10938 8.63279 8.2537 9.29615 9.19342H13.5857C13.5857 9.19336 13.5857 9.19349 13.5857 9.19342L13.5857 9.12561C12.7619 8.93575 12.1443 8.20002 12.1443 7.31945C12.1443 7.09056 12.33 6.90486 12.5589 6.90486C12.7878 6.90486 12.9735 7.09056 12.9735 7.31945C12.9735 7.88628 13.4348 8.3473 14.0016 8.3473C14.5695 8.3473 15.0316 7.88628 15.0316 7.31945C15.0316 6.75154 14.5695 6.28944 14.0016 6.28944C12.9776 6.28944 12.1443 5.45594 12.1443 4.43187C12.1443 3.55032 12.7626 2.81331 13.587 2.62372V2.21584C13.587 1.98695 13.7727 1.80125 14.0016 1.80125C14.2305 1.80125 14.4162 1.98695 14.4162 2.21584V2.62358C15.2417 2.81303 15.8608 3.55018 15.8608 4.43187C15.8608 4.66076 15.6751 4.84646 15.4462 4.84646C15.2173 4.84646 15.0316 4.66076 15.0316 4.43187C15.0316 3.86396 14.5695 3.4024 14.0016 3.4024C13.4348 3.4024 12.9735 3.86396 12.9735 4.43187C12.9735 4.99869 13.4348 5.46026 14.0016 5.46026C15.0268 5.46026 15.8608 6.2943 15.8608 7.31945C15.8608 8.20117 15.2411 8.93788 14.4149 9.12655V9.19322C14.4149 9.19316 14.4149 9.19329 14.4149 9.19322L18.7102 9.19342C19.3735 8.2537 19.766 7.10938 19.766 5.87113C19.766 2.69258 17.1845 0.111084 14.0004 0.111084Z" fill="white"/>
</svg>
