<svg width="40" height="40" viewBox="0 0 40 40" fill="none" xmlns="http://www.w3.org/2000/svg">
<circle cx="20" cy="20" r="20" fill="#FA575D"/>
<path d="M30.7184 25.7499L27.9903 30.1187C27.6987 30.6216 27.2202 30.9889 26.659 31.1406C26.3399 31.2158 26.0066 31.2061 25.6924 31.1123C25.3782 31.0186 25.0941 30.8441 24.8684 30.6062C24.4636 30.1751 24.1856 29.6407 24.0649 29.0618C23.9441 28.4829 23.9853 27.8819 24.184 27.3249C24.2495 27.1129 24.3441 26.9109 24.4653 26.7249L26.0028 24.2593L26.9403 22.7874L27.2215 22.3468C27.4244 22.013 27.7081 21.7357 28.0465 21.5406C28.4086 21.3272 28.8319 21.2418 29.2485 21.2979C29.665 21.354 30.0506 21.5484 30.3434 21.8499C30.8388 22.3546 31.1379 23.0195 31.1871 23.7249C31.2511 24.4327 31.0868 25.1423 30.7184 25.7499ZM26.0309 21.2124L23.2184 25.6749L22.7965 26.6124V26.7343C22.0222 26.2866 21.3642 25.6629 20.8756 24.9137C20.387 24.1645 20.0816 23.3109 19.984 22.4218C19.8484 21.0178 19.5912 19.6282 19.2153 18.2687C18.8393 19.6282 18.5821 21.0178 18.4465 22.4218C18.3489 23.3109 18.0435 24.1645 17.5549 24.9137C17.0663 25.6629 16.4083 26.2866 15.634 26.7343V26.6124L15.2121 25.6749L12.3996 21.2124C12.1903 20.8589 11.9242 20.5422 11.6121 20.2749C12.0523 19.6412 12.3351 18.9117 12.4371 18.1468C12.6406 16.7186 13.1113 15.3414 13.8246 14.0874L14.7621 12.4656L16.5715 9.38119L17.2746 8.18119C17.4805 7.76956 17.7458 7.3905 18.0621 7.05619C18.1306 6.98211 18.2131 6.92241 18.3048 6.88056C18.3966 6.83871 18.4957 6.81555 18.5965 6.81244C18.73 6.84583 18.8534 6.91101 18.9563 7.00243C19.0591 7.09385 19.1383 7.20879 19.1871 7.33744C19.2359 7.20879 19.3152 7.09385 19.418 7.00243C19.5208 6.91101 19.6443 6.84583 19.7778 6.81244C19.8857 6.80789 19.9935 6.82645 20.0937 6.86687C20.1939 6.90729 20.2844 6.96863 20.359 7.04682C20.6694 7.38524 20.9285 7.76745 21.1278 8.18119L21.8121 9.38119L23.6309 12.4374L24.5684 14.0593C25.2817 15.3133 25.7525 16.6904 25.9559 18.1187C26.0606 18.8917 26.35 19.6281 26.7996 20.2656C26.4934 20.5371 26.2337 20.857 26.0309 21.2124ZM22.0371 16.1218C21.9958 15.7376 21.8979 15.3617 21.7465 15.0062C21.6456 14.7481 21.5265 14.4975 21.3903 14.2562L21.184 13.9281C20.6127 13.1041 20.1139 12.232 19.6934 11.3218C19.4717 10.8056 19.3021 10.2686 19.1871 9.71869C19.0728 10.2718 18.9032 10.812 18.6809 11.3312C18.2603 12.2414 17.7616 13.1134 17.1903 13.9374L16.984 14.2656C16.8477 14.5069 16.7287 14.7575 16.6278 15.0156C16.4765 15.3711 16.3786 15.747 16.3371 16.1312C16.3178 16.2523 16.3178 16.3757 16.3371 16.4968C16.358 16.6085 16.4152 16.7102 16.4999 16.7861C16.5845 16.862 16.6918 16.9077 16.8052 16.9163C16.9185 16.9248 17.0315 16.8957 17.1266 16.8334C17.2217 16.7711 17.2935 16.6791 17.3309 16.5718C17.5649 15.9716 17.8536 15.3941 18.1934 14.8468L18.3996 14.5187C18.5028 14.1437 18.6903 13.7781 18.9996 13.7593C19.0524 13.7507 19.1062 13.7507 19.159 13.7593C19.2118 13.7507 19.2656 13.7507 19.3184 13.7593C19.6278 13.7593 19.8153 14.1437 19.9184 14.5187L20.1246 14.8468C20.4645 15.3941 20.7532 15.9716 20.9871 16.5718C21.0245 16.6791 21.0964 16.7711 21.1914 16.8334C21.2865 16.8957 21.3995 16.9248 21.5128 16.9163C21.6262 16.9077 21.7335 16.862 21.8182 16.7861C21.9028 16.7102 21.96 16.6085 21.9809 16.4968C22.02 16.3757 22.039 16.2491 22.0371 16.1218ZM14.1809 27.3718C14.1154 27.1597 14.0208 26.9578 13.8996 26.7718L12.3715 24.2593L11.4996 22.7499L11.2184 22.3093C11.0155 21.9755 10.7317 21.6982 10.3934 21.5031C10.0266 21.2777 9.5934 21.1855 9.16661 21.2418C8.73982 21.2982 8.34542 21.4997 8.04963 21.8124C7.55425 22.3171 7.25509 22.982 7.20588 23.6874C7.12809 24.4056 7.28604 25.1295 7.65588 25.7499L10.384 30.1187C10.6756 30.6216 11.1541 30.9889 11.7153 31.1406C12.0344 31.2158 12.3677 31.2061 12.6819 31.1123C12.9961 31.0186 13.2802 30.8441 13.5059 30.6062C13.9106 30.1751 14.1887 29.6407 14.3094 29.0618C14.4302 28.4829 14.3889 27.8819 14.1903 27.3249L14.1809 27.3718Z" fill="white"/>
</svg>
